<?xml version="1.0" encoding="UTF-8" standalone="no"?>
<svg xmlns="http://www.w3.org/2000/svg" version="1.1" width="1073" height="1073">
	<!-- Created with https://api.qrserver.com (QR Code API, see goQR.me/api for information) -->
	<title>QR Code</title>
	<desc>https://pwcollections.cloud8point5.com/dashboard</desc>
	<rect style="fill:#c3aeff;fill-opacity:0" x="0" y="0" width="1073" height="1073"/>
	<g id="elements">
		<path style="fill:#c3aeff" d="M18.5,0h18.5v18.5v18.5h-18.5h-18.5v-18.5q0 -18.5,18.5 -18.5M18.5,37h18.5v18.5v18.5h-18.5h-18.5v-18.5v-18.5h18.5M18.5,74h18.5v18.5v18.5h-18.5h-18.5v-18.5v-18.5h18.5M18.5,111h18.5v18.5v18.5h-18.5h-18.5v-18.5v-18.5h18.5M18.5,148h18.5v18.5v18.5h-18.5h-18.5v-18.5v-18.5h18.5M18.5,185h18.5v18.5v18.5h-18.5h-18.5v-18.5v-18.5h18.5M18.5,222h18.5v18.5v18.5h-18.5q-18.5 0,-18.5 -18.5v-18.5h18.5M18.5,296h18.5v18.5v18.5h-18.5q-18.5 0,-18.5 -18.5q0 -18.5,18.5 -18.5M18.5,518h18.5v18.5v18.5h-18.5h-18.5v-18.5q0 -18.5,18.5 -18.5M18.5,555h18.5v18.5v18.5h-18.5q-18.5 0,-18.5 -18.5v-18.5h18.5M18.5,629h18.5v18.5v18.5h-18.5h-18.5v-18.5q0 -18.5,18.5 -18.5M18.5,666h18.5v18.5v18.5h-18.5h-18.5v-18.5v-18.5h18.5M18.5,703h18.5v18.5v18.5h-18.5h-18.5v-18.5v-18.5h18.5M18.5,740h18.5v18.5q0 18.5,-18.5 18.5q-18.5 0,-18.5 -18.5v-18.5h18.5M18.5,814h18.5v18.5v18.5h-18.5h-18.5v-18.5q0 -18.5,18.5 -18.5M18.5,851h18.5v18.5v18.5h-18.5h-18.5v-18.5v-18.5h18.5M18.5,888h18.5v18.5v18.5h-18.5h-18.5v-18.5v-18.5h18.5M18.5,925h18.5v18.5v18.5h-18.5h-18.5v-18.5v-18.5h18.5M18.5,962h18.5v18.5v18.5h-18.5h-18.5v-18.5v-18.5h18.5M18.5,999h18.5v18.5v18.5h-18.5h-18.5v-18.5v-18.5h18.5M18.5,1036h18.5v18.5v18.5h-18.5q-18.5 0,-18.5 -18.5v-18.5h18.5M55.5,0h18.5v18.5v18.5h-18.5h-18.5v-18.5v-18.5h18.5M55.5,222h18.5v18.5v18.5h-18.5h-18.5v-18.5v-18.5h18.5M55.5,296h18.5v18.5v18.5h-18.5h-18.5v-18.5v-18.5h18.5M55.5,333h18.5v18.5v18.5h-18.5q-18.5 0,-18.5 -18.5v-18.5h18.5M55.5,407h18.5v18.5v18.5h-18.5q-18.5 0,-18.5 -18.5q0 -18.5,18.5 -18.5M55.5,481h18.5v18.5v18.5h-18.5h-18.5v-18.5q0 -18.5,18.5 -18.5M55.5,518h18.5v18.5v18.5h-18.5h-18.5v-18.5v-18.5h18.5M55.5,592h18.5v18.5v18.5h-18.5h-18.5v-18.5v-18.5h18.5M55.5,629h18.5v18.5v18.5h-18.5h-18.5v-18.5v-18.5h18.5M55.5,814h18.5v18.5v18.5h-18.5h-18.5v-18.5v-18.5h18.5M55.5,1036h18.5v18.5v18.5h-18.5h-18.5v-18.5v-18.5h18.5M92.5,0h18.5v18.5v18.5h-18.5h-18.5v-18.5v-18.5h18.5M92.5,74h18.5v18.5v18.5h-18.5h-18.5v-18.5q0 -18.5,18.5 -18.5M92.5,111h18.5v18.5v18.5h-18.5h-18.5v-18.5v-18.5h18.5M92.5,148h18.5v18.5v18.5h-18.5q-18.5 0,-18.5 -18.5v-18.5h18.5M92.5,222h18.5v18.5v18.5h-18.5h-18.5v-18.5v-18.5h18.5M92.5,296h18.5v18.5v18.5h-18.5h-18.5v-18.5v-18.5h18.5M92.5,333h18.5v18.5v18.5h-18.5h-18.5v-18.5v-18.5h18.5M92.5,407h18.5v18.5v18.5h-18.5h-18.5v-18.5v-18.5h18.5M92.5,444h18.5v18.5v18.5h-18.5h-18.5v-18.5v-18.5h18.5M92.5,481h18.5v18.5v18.5h-18.5h-18.5v-18.5v-18.5h18.5M92.5,518h18.5v18.5q0 18.5,-18.5 18.5h-18.5v-18.5v-18.5h18.5M92.5,592q18.5 0,18.5 18.5q0 18.5,-18.5 18.5h-18.5v-18.5v-18.5h18.5M92.5,666h18.5v18.5v18.5h-18.5h-18.5v-18.5v-18.5h18.5M92.5,703h18.5v18.5v18.5h-18.5q-18.5 0,-18.5 -18.5v-18.5h18.5M92.5,814h18.5v18.5v18.5h-18.5h-18.5v-18.5v-18.5h18.5M92.5,888h18.5v18.5v18.5h-18.5h-18.5v-18.5q0 -18.5,18.5 -18.5M92.5,925h18.5v18.5v18.5h-18.5h-18.5v-18.5v-18.5h18.5M92.5,962h18.5v18.5v18.5h-18.5q-18.5 0,-18.5 -18.5v-18.5h18.5M92.5,1036h18.5v18.5v18.5h-18.5h-18.5v-18.5v-18.5h18.5M129.5,0h18.5v18.5v18.5h-18.5h-18.5v-18.5v-18.5h18.5M129.5,74h18.5v18.5v18.5h-18.5h-18.5v-18.5v-18.5h18.5M129.5,111h18.5v18.5v18.5h-18.5h-18.5v-18.5v-18.5h18.5M129.5,148h18.5v18.5v18.5h-18.5h-18.5v-18.5v-18.5h18.5M129.5,222h18.5v18.5v18.5h-18.5h-18.5v-18.5v-18.5h18.5M129.5,296h18.5v18.5v18.5h-18.5h-18.5v-18.5v-18.5h18.5M129.5,370h18.5v18.5v18.5h-18.5h-18.5v-18.5v-18.5h18.5M129.5,407h18.5v18.5v18.5h-18.5h-18.5v-18.5v-18.5h18.5M129.5,666q18.5 0,18.5 18.5q0 18.5,-18.5 18.5h-18.5v-18.5v-18.5h18.5M129.5,740h18.5v18.5v18.5h-18.5q-18.5 0,-18.5 -18.5v-18.5h18.5M129.5,814h18.5v18.5v18.5h-18.5h-18.5v-18.5v-18.5h18.5M129.5,888h18.5v18.5v18.5h-18.5h-18.5v-18.5v-18.5h18.5M129.5,925h18.5v18.5v18.5h-18.5h-18.5v-18.5v-18.5h18.5M129.5,962h18.5v18.5v18.5h-18.5h-18.5v-18.5v-18.5h18.5M129.5,1036h18.5v18.5v18.5h-18.5h-18.5v-18.5v-18.5h18.5M166.5,0h18.5v18.5v18.5h-18.5h-18.5v-18.5v-18.5h18.5M166.5,74q18.5 0,18.5 18.5v18.5h-18.5h-18.5v-18.5v-18.5h18.5M166.5,111h18.5v18.5v18.5h-18.5h-18.5v-18.5v-18.5h18.5M166.5,148h18.5v18.5q0 18.5,-18.5 18.5h-18.5v-18.5v-18.5h18.5M166.5,222h18.5v18.5v18.5h-18.5h-18.5v-18.5v-18.5h18.5M166.5,296q18.5 0,18.5 18.5q0 18.5,-18.5 18.5h-18.5v-18.5v-18.5h18.5M166.5,370h18.5v18.5v18.5h-18.5h-18.5v-18.5v-18.5h18.5M166.5,444h18.5v18.5v18.5h-18.5q-18.5 0,-18.5 -18.5v-18.5h18.5M166.5,518h18.5v18.5v18.5h-18.5h-18.5v-18.5q0 -18.5,18.5 -18.5M166.5,555h18.5v18.5v18.5h-18.5h-18.5v-18.5v-18.5h18.5M166.5,592h18.5v18.5q0 18.5,-18.5 18.5q-18.5 0,-18.5 -18.5v-18.5h18.5M166.5,740q18.5 0,18.5 18.5q0 18.5,-18.5 18.5h-18.5v-18.5v-18.5h18.5M166.5,814h18.5v18.5v18.5h-18.5h-18.5v-18.5v-18.5h18.5M166.5,888q18.5 0,18.5 18.5v18.5h-18.5h-18.5v-18.5v-18.5h18.5M166.5,925h18.5v18.5v18.5h-18.5h-18.5v-18.5v-18.5h18.5M166.5,962h18.5v18.5q0 18.5,-18.5 18.5h-18.5v-18.5v-18.5h18.5M166.5,1036h18.5v18.5v18.5h-18.5h-18.5v-18.5v-18.5h18.5M203.5,0h18.5v18.5v18.5h-18.5h-18.5v-18.5v-18.5h18.5M203.5,222h18.5v18.5v18.5h-18.5h-18.5v-18.5v-18.5h18.5M203.5,370h18.5v18.5v18.5h-18.5h-18.5v-18.5v-18.5h18.5M203.5,444h18.5v18.5v18.5h-18.5h-18.5v-18.5v-18.5h18.5M203.5,481h18.5v18.5v18.5h-18.5h-18.5v-18.5v-18.5h18.5M203.5,814h18.5v18.5v18.5h-18.5h-18.5v-18.5v-18.5h18.5M203.5,1036h18.5v18.5v18.5h-18.5h-18.5v-18.5v-18.5h18.5M240.5,0q18.5 0,18.5 18.5v18.5h-18.5h-18.5v-18.5v-18.5h18.5M240.5,37h18.5v18.5v18.5h-18.5h-18.5v-18.5v-18.5h18.5M240.5,74h18.5v18.5v18.5h-18.5h-18.5v-18.5v-18.5h18.5M240.5,111h18.5v18.5v18.5h-18.5h-18.5v-18.5v-18.5h18.5M240.5,148h18.5v18.5v18.5h-18.5h-18.5v-18.5v-18.5h18.5M240.5,185h18.5v18.5v18.5h-18.5h-18.5v-18.5v-18.5h18.5M240.5,222h18.5v18.5q0 18.5,-18.5 18.5h-18.5v-18.5v-18.5h18.5M240.5,296h18.5v18.5v18.5h-18.5q-18.5 0,-18.5 -18.5q0 -18.5,18.5 -18.5M240.5,370q18.5 0,18.5 18.5v18.5h-18.5h-18.5v-18.5v-18.5h18.5M240.5,444h18.5v18.5q0 18.5,-18.5 18.5h-18.5v-18.5v-18.5h18.5M240.5,518q18.5 0,18.5 18.5v18.5h-18.5q-18.5 0,-18.5 -18.5v-18.5h18.5M240.5,592h18.5v18.5q0 18.5,-18.5 18.5q-18.5 0,-18.5 -18.5q0 -18.5,18.5 -18.5M240.5,666h18.5v18.5v18.5h-18.5q-18.5 0,-18.5 -18.5q0 -18.5,18.5 -18.5M240.5,740q18.5 0,18.5 18.5q0 18.5,-18.5 18.5q-18.5 0,-18.5 -18.5q0 -18.5,18.5 -18.5M240.5,814q18.5 0,18.5 18.5v18.5h-18.5h-18.5v-18.5v-18.5h18.5M240.5,851h18.5v18.5v18.5h-18.5h-18.5v-18.5v-18.5h18.5M240.5,888h18.5v18.5v18.5h-18.5h-18.5v-18.5v-18.5h18.5M240.5,925h18.5v18.5v18.5h-18.5h-18.5v-18.5v-18.5h18.5M240.5,962h18.5v18.5v18.5h-18.5h-18.5v-18.5v-18.5h18.5M240.5,999h18.5v18.5v18.5h-18.5h-18.5v-18.5v-18.5h18.5M240.5,1036h18.5v18.5q0 18.5,-18.5 18.5h-18.5v-18.5v-18.5h18.5M277.5,296h18.5v18.5v18.5h-18.5h-18.5v-18.5v-18.5h18.5M277.5,407h18.5v18.5v18.5h-18.5h-18.5v-18.5v-18.5h18.5M277.5,555h18.5v18.5v18.5h-18.5h-18.5v-18.5v-18.5h18.5M277.5,666h18.5v18.5v18.5h-18.5h-18.5v-18.5v-18.5h18.5M314.5,37q18.5 0,18.5 18.5q0 18.5,-18.5 18.5q-18.5 0,-18.5 -18.5q0 -18.5,18.5 -18.5M314.5,111h18.5v18.5v18.5h-18.5q-18.5 0,-18.5 -18.5q0 -18.5,18.5 -18.5M314.5,185h18.5v18.5v18.5h-18.5h-18.5v-18.5q0 -18.5,18.5 -18.5M314.5,222h18.5v18.5v18.5h-18.5q-18.5 0,-18.5 -18.5v-18.5h18.5M314.5,296h18.5v18.5v18.5h-18.5h-18.5v-18.5v-18.5h18.5M314.5,333h18.5v18.5v18.5h-18.5h-18.5v-18.5v-18.5h18.5M314.5,370h18.5v18.5q0 18.5,-18.5 18.5h-18.5v-18.5v-18.5h18.5M314.5,444h18.5v18.5v18.5h-18.5q-18.5 0,-18.5 -18.5v-18.5h18.5M314.5,555h18.5v18.5v18.5h-18.5h-18.5v-18.5v-18.5h18.5M314.5,592h18.5v18.5v18.5h-18.5h-18.5v-18.5v-18.5h18.5M314.5,629h18.5v18.5v18.5h-18.5h-18.5v-18.5v-18.5h18.5M314.5,703h18.5v18.5v18.5h-18.5h-18.5v-18.5v-18.5h18.5M314.5,740h18.5v18.5v18.5h-18.5h-18.5v-18.5v-18.5h18.5M314.5,777h18.5v18.5v18.5h-18.5h-18.5v-18.5v-18.5h18.5M314.5,814h18.5v18.5v18.5h-18.5q-18.5 0,-18.5 -18.5v-18.5h18.5M314.5,888h18.5v18.5v18.5h-18.5h-18.5v-18.5q0 -18.5,18.5 -18.5M314.5,925h18.5v18.5v18.5h-18.5h-18.5v-18.5v-18.5h18.5M314.5,962h18.5v18.5v18.5h-18.5h-18.5v-18.5v-18.5h18.5M314.5,999h18.5v18.5v18.5h-18.5h-18.5v-18.5v-18.5h18.5M314.5,1036h18.5v18.5v18.5h-18.5q-18.5 0,-18.5 -18.5v-18.5h18.5M351.5,111h18.5v18.5v18.5h-18.5h-18.5v-18.5v-18.5h18.5M351.5,148h18.5v18.5v18.5h-18.5h-18.5v-18.5v-18.5h18.5M351.5,185h18.5v18.5v18.5h-18.5h-18.5v-18.5v-18.5h18.5M351.5,259h18.5v18.5v18.5h-18.5h-18.5v-18.5v-18.5h18.5M351.5,296h18.5v18.5v18.5h-18.5h-18.5v-18.5v-18.5h18.5M351.5,444h18.5v18.5v18.5h-18.5h-18.5v-18.5v-18.5h18.5M351.5,518q18.5 0,18.5 18.5v18.5h-18.5h-18.5v-18.5q0 -18.5,18.5 -18.5M351.5,555h18.5v18.5q0 18.5,-18.5 18.5h-18.5v-18.5v-18.5h18.5M351.5,629h18.5v18.5v18.5h-18.5h-18.5v-18.5v-18.5h18.5M351.5,666h18.5v18.5v18.5h-18.5h-18.5v-18.5v-18.5h18.5M351.5,703h18.5v18.5v18.5h-18.5h-18.5v-18.5v-18.5h18.5M351.5,814h18.5v18.5v18.5h-18.5h-18.5v-18.5v-18.5h18.5M351.5,888h18.5v18.5v18.5h-18.5h-18.5v-18.5v-18.5h18.5M351.5,925h18.5v18.5v18.5h-18.5h-18.5v-18.5v-18.5h18.5M351.5,962h18.5v18.5v18.5h-18.5h-18.5v-18.5v-18.5h18.5M351.5,1036h18.5v18.5v18.5h-18.5h-18.5v-18.5v-18.5h18.5M388.5,0q18.5 0,18.5 18.5v18.5h-18.5h-18.5v-18.5q0 -18.5,18.5 -18.5M388.5,37h18.5v18.5q0 18.5,-18.5 18.5q-18.5 0,-18.5 -18.5v-18.5h18.5M388.5,111q18.5 0,18.5 18.5q0 18.5,-18.5 18.5h-18.5v-18.5v-18.5h18.5M388.5,222h18.5v18.5v18.5h-18.5h-18.5v-18.5v-18.5h18.5M388.5,259h18.5v18.5v18.5h-18.5h-18.5v-18.5v-18.5h18.5M388.5,333h18.5v18.5v18.5h-18.5h-18.5v-18.5v-18.5h18.5M388.5,370h18.5v18.5q0 18.5,-18.5 18.5q-18.5 0,-18.5 -18.5v-18.5h18.5M388.5,444q18.5 0,18.5 18.5v18.5h-18.5h-18.5v-18.5v-18.5h18.5M388.5,629h18.5v18.5v18.5h-18.5h-18.5v-18.5v-18.5h18.5M388.5,703q18.5 0,18.5 18.5v18.5h-18.5h-18.5v-18.5v-18.5h18.5M388.5,740h18.5v18.5v18.5h-18.5q-18.5 0,-18.5 -18.5v-18.5h18.5M388.5,814h18.5v18.5v18.5h-18.5h-18.5v-18.5v-18.5h18.5M388.5,851h18.5v18.5v18.5h-18.5h-18.5v-18.5v-18.5h18.5M388.5,925h18.5v18.5v18.5h-18.5h-18.5v-18.5v-18.5h18.5M388.5,962h18.5v18.5v18.5h-18.5h-18.5v-18.5v-18.5h18.5M388.5,1036h18.5v18.5q0 18.5,-18.5 18.5h-18.5v-18.5v-18.5h18.5M425.5,185h18.5v18.5v18.5h-18.5h-18.5v-18.5q0 -18.5,18.5 -18.5M425.5,259h18.5v18.5v18.5h-18.5h-18.5v-18.5v-18.5h18.5M425.5,296h18.5v18.5v18.5h-18.5h-18.5v-18.5v-18.5h18.5M425.5,481h18.5v18.5v18.5h-18.5q-18.5 0,-18.5 -18.5v-18.5h18.5M425.5,555h18.5v18.5v18.5h-18.5q-18.5 0,-18.5 -18.5q0 -18.5,18.5 -18.5M425.5,629q18.5 0,18.5 18.5q0 18.5,-18.5 18.5h-18.5v-18.5v-18.5h18.5M425.5,777h18.5v18.5q0 18.5,-18.5 18.5h-18.5v-18.5v-18.5h18.5M425.5,851q18.5 0,18.5 18.5v18.5h-18.5h-18.5v-18.5v-18.5h18.5M425.5,888h18.5v18.5v18.5h-18.5h-18.5v-18.5v-18.5h18.5M425.5,925h18.5v18.5v18.5h-18.5h-18.5v-18.5v-18.5h18.5M425.5,999h18.5v18.5v18.5h-18.5h-18.5v-18.5v-18.5h18.5M462.5,0h18.5v18.5v18.5h-18.5q-18.5 0,-18.5 -18.5q0 -18.5,18.5 -18.5M462.5,74h18.5v18.5v18.5h-18.5h-18.5v-18.5q0 -18.5,18.5 -18.5M462.5,111h18.5v18.5v18.5h-18.5q-18.5 0,-18.5 -18.5v-18.5h18.5M462.5,185h18.5v18.5v18.5h-18.5h-18.5v-18.5v-18.5h18.5M462.5,222h18.5v18.5q0 18.5,-18.5 18.5h-18.5v-18.5v-18.5h18.5M462.5,296h18.5v18.5v18.5h-18.5h-18.5v-18.5v-18.5h18.5M462.5,333h18.5v18.5v18.5h-18.5h-18.5v-18.5v-18.5h18.5M462.5,370h18.5v18.5v18.5h-18.5q-18.5 0,-18.5 -18.5v-18.5h18.5M462.5,444h18.5v18.5v18.5h-18.5h-18.5v-18.5q0 -18.5,18.5 -18.5M462.5,518q18.5 0,18.5 18.5v18.5h-18.5h-18.5v-18.5v-18.5h18.5M462.5,555h18.5v18.5v18.5h-18.5h-18.5v-18.5v-18.5h18.5M462.5,703q18.5 0,18.5 18.5v18.5h-18.5h-18.5v-18.5q0 -18.5,18.5 -18.5M462.5,740h18.5v18.5v18.5h-18.5h-18.5v-18.5v-18.5h18.5M462.5,888h18.5v18.5v18.5h-18.5h-18.5v-18.5v-18.5h18.5M462.5,962h18.5v18.5v18.5h-18.5h-18.5v-18.5v-18.5h18.5M462.5,999h18.5v18.5v18.5h-18.5h-18.5v-18.5v-18.5h18.5M462.5,1036h18.5v18.5v18.5h-18.5q-18.5 0,-18.5 -18.5v-18.5h18.5M499.5,0q18.5 0,18.5 18.5v18.5h-18.5h-18.5v-18.5v-18.5h18.5M499.5,37h18.5v18.5v18.5h-18.5h-18.5v-18.5v-18.5h18.5M499.5,111h18.5v18.5v18.5h-18.5h-18.5v-18.5v-18.5h18.5M499.5,148h18.5v18.5v18.5h-18.5h-18.5v-18.5v-18.5h18.5M499.5,296h18.5v18.5v18.5h-18.5h-18.5v-18.5v-18.5h18.5M499.5,333h18.5v18.5v18.5h-18.5h-18.5v-18.5v-18.5h18.5M499.5,370h18.5v18.5v18.5h-18.5h-18.5v-18.5v-18.5h18.5M499.5,444h18.5v18.5v18.5h-18.5h-18.5v-18.5v-18.5h18.5M499.5,592h18.5v18.5v18.5h-18.5q-18.5 0,-18.5 -18.5v-18.5h18.5M499.5,740h18.5v18.5v18.5h-18.5h-18.5v-18.5v-18.5h18.5M499.5,814h18.5v18.5v18.5h-18.5q-18.5 0,-18.5 -18.5q0 -18.5,18.5 -18.5M499.5,888h18.5v18.5v18.5h-18.5h-18.5v-18.5v-18.5h18.5M499.5,925h18.5v18.5q0 18.5,-18.5 18.5h-18.5v-18.5v-18.5h18.5M499.5,1036h18.5v18.5v18.5h-18.5h-18.5v-18.5v-18.5h18.5M536.5,37h18.5v18.5v18.5h-18.5h-18.5v-18.5v-18.5h18.5M536.5,74h18.5v18.5v18.5h-18.5h-18.5v-18.5v-18.5h18.5M536.5,111h18.5v18.5v18.5h-18.5h-18.5v-18.5v-18.5h18.5M536.5,185h18.5v18.5v18.5h-18.5h-18.5v-18.5v-18.5h18.5M536.5,222h18.5v18.5v18.5h-18.5h-18.5v-18.5v-18.5h18.5M536.5,259h18.5v18.5q0 18.5,-18.5 18.5h-18.5v-18.5v-18.5h18.5M536.5,370h18.5v18.5v18.5h-18.5h-18.5v-18.5v-18.5h18.5M536.5,407h18.5v18.5v18.5h-18.5h-18.5v-18.5v-18.5h18.5M536.5,444h18.5v18.5v18.5h-18.5h-18.5v-18.5v-18.5h18.5M536.5,518h18.5v18.5v18.5h-18.5q-18.5 0,-18.5 -18.5q0 -18.5,18.5 -18.5M536.5,592h18.5v18.5v18.5h-18.5h-18.5v-18.5v-18.5h18.5M536.5,703h18.5v18.5v18.5h-18.5h-18.5v-18.5q0 -18.5,18.5 -18.5M536.5,740h18.5v18.5v18.5h-18.5h-18.5v-18.5v-18.5h18.5M536.5,777h18.5v18.5v18.5h-18.5h-18.5v-18.5v-18.5h18.5M536.5,851h18.5v18.5v18.5h-18.5h-18.5v-18.5v-18.5h18.5M536.5,888h18.5v18.5q0 18.5,-18.5 18.5h-18.5v-18.5v-18.5h18.5M536.5,1036q18.5 0,18.5 18.5q0 18.5,-18.5 18.5h-18.5v-18.5v-18.5h18.5M573.5,37h18.5v18.5v18.5h-18.5h-18.5v-18.5v-18.5h18.5M573.5,111q18.5 0,18.5 18.5v18.5h-18.5h-18.5v-18.5v-18.5h18.5M573.5,185h18.5v18.5v18.5h-18.5h-18.5v-18.5v-18.5h18.5M573.5,370h18.5v18.5v18.5h-18.5h-18.5v-18.5v-18.5h18.5M573.5,407h18.5v18.5v18.5h-18.5h-18.5v-18.5v-18.5h18.5M573.5,444h18.5v18.5v18.5h-18.5h-18.5v-18.5v-18.5h18.5M573.5,518q18.5 0,18.5 18.5v18.5h-18.5h-18.5v-18.5v-18.5h18.5M573.5,555h18.5v18.5v18.5h-18.5h-18.5v-18.5v-18.5h18.5M573.5,592h18.5v18.5v18.5h-18.5h-18.5v-18.5v-18.5h18.5M573.5,666h18.5v18.5v18.5h-18.5h-18.5v-18.5q0 -18.5,18.5 -18.5M573.5,814h18.5v18.5v18.5h-18.5h-18.5v-18.5v-18.5h18.5M573.5,851h18.5v18.5q0 18.5,-18.5 18.5h-18.5v-18.5v-18.5h18.5M573.5,962h18.5v18.5v18.5h-18.5q-18.5 0,-18.5 -18.5q0 -18.5,18.5 -18.5M610.5,0q18.5 0,18.5 18.5v18.5h-18.5h-18.5v-18.5q0 -18.5,18.5 -18.5M610.5,37h18.5v18.5v18.5h-18.5h-18.5v-18.5v-18.5h18.5M610.5,148h18.5v18.5v18.5h-18.5h-18.5v-18.5v-18.5h18.5M610.5,222q18.5 0,18.5 18.5v18.5h-18.5h-18.5v-18.5v-18.5h18.5M610.5,259h18.5v18.5v18.5h-18.5q-18.5 0,-18.5 -18.5v-18.5h18.5M610.5,370h18.5v18.5v18.5h-18.5h-18.5v-18.5v-18.5h18.5M610.5,407h18.5v18.5v18.5h-18.5h-18.5v-18.5v-18.5h18.5M610.5,444h18.5v18.5v18.5h-18.5h-18.5v-18.5v-18.5h18.5M610.5,555q18.5 0,18.5 18.5v18.5h-18.5h-18.5v-18.5v-18.5h18.5M610.5,592h18.5v18.5v18.5h-18.5h-18.5v-18.5v-18.5h18.5M610.5,629h18.5v18.5q0 18.5,-18.5 18.5h-18.5v-18.5v-18.5h18.5M610.5,703q18.5 0,18.5 18.5v18.5h-18.5q-18.5 0,-18.5 -18.5v-18.5h18.5M610.5,777h18.5v18.5v18.5h-18.5h-18.5v-18.5q0 -18.5,18.5 -18.5M610.5,814h18.5v18.5q0 18.5,-18.5 18.5h-18.5v-18.5v-18.5h18.5M610.5,925h18.5v18.5v18.5h-18.5h-18.5v-18.5q0 -18.5,18.5 -18.5M610.5,962h18.5v18.5v18.5h-18.5h-18.5v-18.5v-18.5h18.5M610.5,999h18.5v18.5v18.5h-18.5q-18.5 0,-18.5 -18.5v-18.5h18.5M647.5,37h18.5v18.5v18.5h-18.5h-18.5v-18.5v-18.5h18.5M647.5,111q18.5 0,18.5 18.5v18.5h-18.5h-18.5v-18.5q0 -18.5,18.5 -18.5M647.5,148h18.5v18.5v18.5h-18.5h-18.5v-18.5v-18.5h18.5M647.5,296h18.5v18.5v18.5h-18.5h-18.5v-18.5v-18.5h18.5M647.5,333h18.5v18.5v18.5h-18.5h-18.5v-18.5v-18.5h18.5M647.5,370h18.5v18.5q0 18.5,-18.5 18.5h-18.5v-18.5v-18.5h18.5M647.5,444q18.5 0,18.5 18.5q0 18.5,-18.5 18.5h-18.5v-18.5v-18.5h18.5M647.5,592q18.5 0,18.5 18.5v18.5h-18.5h-18.5v-18.5v-18.5h18.5M647.5,740h18.5v18.5v18.5h-18.5h-18.5v-18.5v-18.5h18.5M647.5,777h18.5v18.5v18.5h-18.5h-18.5v-18.5v-18.5h18.5M647.5,888h18.5v18.5q0 18.5,-18.5 18.5h-18.5v-18.5q0 -18.5,18.5 -18.5M647.5,1036h18.5v18.5q0 18.5,-18.5 18.5q-18.5 0,-18.5 -18.5v-18.5h18.5M684.5,0h18.5v18.5v18.5h-18.5h-18.5v-18.5q0 -18.5,18.5 -18.5M684.5,37h18.5v18.5v18.5h-18.5h-18.5v-18.5v-18.5h18.5M684.5,148h18.5v18.5v18.5h-18.5h-18.5v-18.5v-18.5h18.5M684.5,222q18.5 0,18.5 18.5v18.5h-18.5h-18.5v-18.5q0 -18.5,18.5 -18.5M684.5,259h18.5v18.5v18.5h-18.5h-18.5v-18.5v-18.5h18.5M684.5,333h18.5v18.5v18.5h-18.5h-18.5v-18.5v-18.5h18.5M684.5,629h18.5v18.5v18.5h-18.5q-18.5 0,-18.5 -18.5v-18.5h18.5M684.5,703q18.5 0,18.5 18.5v18.5h-18.5h-18.5v-18.5q0 -18.5,18.5 -18.5M684.5,740h18.5v18.5v18.5h-18.5h-18.5v-18.5v-18.5h18.5M684.5,814h18.5v18.5v18.5h-18.5h-18.5v-18.5v-18.5h18.5M684.5,851h18.5v18.5v18.5h-18.5h-18.5v-18.5v-18.5h18.5M684.5,962h18.5v18.5v18.5h-18.5h-18.5v-18.5q0 -18.5,18.5 -18.5M684.5,999h18.5v18.5v18.5h-18.5h-18.5v-18.5v-18.5h18.5M721.5,0h18.5v18.5v18.5h-18.5h-18.5v-18.5v-18.5h18.5M721.5,74h18.5v18.5v18.5h-18.5h-18.5v-18.5v-18.5h18.5M721.5,111h18.5v18.5v18.5h-18.5h-18.5v-18.5v-18.5h18.5M721.5,148h18.5v18.5v18.5h-18.5h-18.5v-18.5v-18.5h18.5M721.5,259h18.5v18.5v18.5h-18.5h-18.5v-18.5v-18.5h18.5M721.5,333h18.5v18.5v18.5h-18.5h-18.5v-18.5v-18.5h18.5M721.5,407h18.5v18.5v18.5h-18.5h-18.5v-18.5q0 -18.5,18.5 -18.5M721.5,444h18.5v18.5v18.5h-18.5h-18.5v-18.5v-18.5h18.5M721.5,481h18.5v18.5v18.5h-18.5q-18.5 0,-18.5 -18.5v-18.5h18.5M721.5,555h18.5v18.5v18.5h-18.5h-18.5v-18.5q0 -18.5,18.5 -18.5M721.5,592h18.5v18.5v18.5h-18.5h-18.5v-18.5v-18.5h18.5M721.5,629h18.5v18.5v18.5h-18.5h-18.5v-18.5v-18.5h18.5M721.5,740h18.5v18.5v18.5h-18.5h-18.5v-18.5v-18.5h18.5M721.5,814h18.5v18.5v18.5h-18.5h-18.5v-18.5v-18.5h18.5M721.5,851h18.5v18.5v18.5h-18.5h-18.5v-18.5v-18.5h18.5M721.5,962q18.5 0,18.5 18.5v18.5h-18.5h-18.5v-18.5v-18.5h18.5M721.5,999h18.5v18.5v18.5h-18.5h-18.5v-18.5v-18.5h18.5M721.5,1036h18.5v18.5q0 18.5,-18.5 18.5q-18.5 0,-18.5 -18.5v-18.5h18.5M758.5,0q18.5 0,18.5 18.5q0 18.5,-18.5 18.5h-18.5v-18.5v-18.5h18.5M758.5,74q18.5 0,18.5 18.5q0 18.5,-18.5 18.5h-18.5v-18.5v-18.5h18.5M758.5,185q18.5 0,18.5 18.5v18.5h-18.5h-18.5v-18.5v-18.5h18.5M758.5,222h18.5v18.5q0 18.5,-18.5 18.5h-18.5v-18.5v-18.5h18.5M758.5,296h18.5v18.5v18.5h-18.5h-18.5v-18.5v-18.5h18.5M758.5,333h18.5v18.5v18.5h-18.5h-18.5v-18.5v-18.5h18.5M758.5,407h18.5v18.5v18.5h-18.5h-18.5v-18.5v-18.5h18.5M758.5,481h18.5v18.5v18.5h-18.5h-18.5v-18.5v-18.5h18.5M758.5,518h18.5v18.5v18.5h-18.5h-18.5v-18.5v-18.5h18.5M758.5,555h18.5v18.5v18.5h-18.5h-18.5v-18.5v-18.5h18.5M758.5,629h18.5v18.5v18.5h-18.5h-18.5v-18.5v-18.5h18.5M758.5,666h18.5v18.5q0 18.5,-18.5 18.5q-18.5 0,-18.5 -18.5v-18.5h18.5M758.5,740h18.5v18.5v18.5h-18.5h-18.5v-18.5v-18.5h18.5M758.5,777h18.5v18.5v18.5h-18.5h-18.5v-18.5v-18.5h18.5M758.5,814h18.5v18.5v18.5h-18.5h-18.5v-18.5v-18.5h18.5M758.5,851h18.5v18.5v18.5h-18.5h-18.5v-18.5v-18.5h18.5M758.5,888h18.5v18.5v18.5h-18.5q-18.5 0,-18.5 -18.5v-18.5h18.5M758.5,999h18.5v18.5v18.5h-18.5h-18.5v-18.5v-18.5h18.5M795.5,296q18.5 0,18.5 18.5v18.5h-18.5h-18.5v-18.5v-18.5h18.5M795.5,333h18.5v18.5v18.5h-18.5h-18.5v-18.5v-18.5h18.5M795.5,407h18.5v18.5q0 18.5,-18.5 18.5h-18.5v-18.5v-18.5h18.5M795.5,481h18.5v18.5v18.5h-18.5h-18.5v-18.5v-18.5h18.5M795.5,555h18.5v18.5q0 18.5,-18.5 18.5h-18.5v-18.5v-18.5h18.5M795.5,629h18.5v18.5v18.5h-18.5h-18.5v-18.5v-18.5h18.5M795.5,740h18.5v18.5v18.5h-18.5h-18.5v-18.5v-18.5h18.5M795.5,888h18.5v18.5v18.5h-18.5h-18.5v-18.5v-18.5h18.5M795.5,962h18.5v18.5v18.5h-18.5h-18.5v-18.5q0 -18.5,18.5 -18.5M795.5,999h18.5v18.5v18.5h-18.5h-18.5v-18.5v-18.5h18.5M832.5,0h18.5v18.5v18.5h-18.5h-18.5v-18.5q0 -18.5,18.5 -18.5M832.5,37h18.5v18.5v18.5h-18.5h-18.5v-18.5v-18.5h18.5M832.5,74h18.5v18.5v18.5h-18.5h-18.5v-18.5v-18.5h18.5M832.5,111h18.5v18.5v18.5h-18.5h-18.5v-18.5v-18.5h18.5M832.5,148h18.5v18.5v18.5h-18.5h-18.5v-18.5v-18.5h18.5M832.5,185h18.5v18.5v18.5h-18.5h-18.5v-18.5v-18.5h18.5M832.5,222h18.5v18.5v18.5h-18.5q-18.5 0,-18.5 -18.5v-18.5h18.5M832.5,333h18.5v18.5v18.5h-18.5h-18.5v-18.5v-18.5h18.5M832.5,370h18.5v18.5v18.5h-18.5h-18.5v-18.5v-18.5h18.5M832.5,481h18.5v18.5v18.5h-18.5h-18.5v-18.5v-18.5h18.5M832.5,518h18.5v18.5v18.5h-18.5h-18.5v-18.5v-18.5h18.5M832.5,629h18.5v18.5v18.5h-18.5h-18.5v-18.5v-18.5h18.5M832.5,740h18.5v18.5v18.5h-18.5h-18.5v-18.5v-18.5h18.5M832.5,814q18.5 0,18.5 18.5q0 18.5,-18.5 18.5q-18.5 0,-18.5 -18.5q0 -18.5,18.5 -18.5M832.5,888h18.5v18.5v18.5h-18.5h-18.5v-18.5v-18.5h18.5M832.5,962h18.5v18.5v18.5h-18.5h-18.5v-18.5v-18.5h18.5M832.5,1036q18.5 0,18.5 18.5q0 18.5,-18.5 18.5q-18.5 0,-18.5 -18.5v-18.5h18.5M869.5,0h18.5v18.5v18.5h-18.5h-18.5v-18.5v-18.5h18.5M869.5,222h18.5v18.5v18.5h-18.5h-18.5v-18.5v-18.5h18.5M869.5,296q18.5 0,18.5 18.5v18.5h-18.5h-18.5v-18.5q0 -18.5,18.5 -18.5M869.5,333h18.5v18.5v18.5h-18.5h-18.5v-18.5v-18.5h18.5M869.5,370h18.5v18.5v18.5h-18.5h-18.5v-18.5v-18.5h18.5M869.5,407h18.5v18.5q0 18.5,-18.5 18.5q-18.5 0,-18.5 -18.5v-18.5h18.5M869.5,481h18.5v18.5v18.5h-18.5h-18.5v-18.5v-18.5h18.5M869.5,518h18.5v18.5v18.5h-18.5h-18.5v-18.5v-18.5h18.5M869.5,629h18.5v18.5v18.5h-18.5h-18.5v-18.5v-18.5h18.5M869.5,666h18.5v18.5v18.5h-18.5h-18.5v-18.5v-18.5h18.5M869.5,703h18.5v18.5v18.5h-18.5h-18.5v-18.5v-18.5h18.5M869.5,740h18.5v18.5v18.5h-18.5h-18.5v-18.5v-18.5h18.5M869.5,888h18.5v18.5v18.5h-18.5h-18.5v-18.5v-18.5h18.5M869.5,925h18.5v18.5v18.5h-18.5h-18.5v-18.5v-18.5h18.5M869.5,962h18.5v18.5v18.5h-18.5h-18.5v-18.5v-18.5h18.5M906.5,0h18.5v18.5v18.5h-18.5h-18.5v-18.5v-18.5h18.5M906.5,74h18.5v18.5v18.5h-18.5h-18.5v-18.5q0 -18.5,18.5 -18.5M906.5,111h18.5v18.5v18.5h-18.5h-18.5v-18.5v-18.5h18.5M906.5,148h18.5v18.5v18.5h-18.5q-18.5 0,-18.5 -18.5v-18.5h18.5M906.5,222h18.5v18.5v18.5h-18.5h-18.5v-18.5v-18.5h18.5M906.5,333h18.5v18.5q0 18.5,-18.5 18.5h-18.5v-18.5v-18.5h18.5M906.5,481h18.5v18.5v18.5h-18.5h-18.5v-18.5v-18.5h18.5M906.5,555h18.5v18.5v18.5h-18.5q-18.5 0,-18.5 -18.5v-18.5h18.5M906.5,629h18.5v18.5q0 18.5,-18.5 18.5h-18.5v-18.5v-18.5h18.5M906.5,703q18.5 0,18.5 18.5v18.5h-18.5h-18.5v-18.5v-18.5h18.5M906.5,740h18.5v18.5v18.5h-18.5h-18.5v-18.5v-18.5h18.5M906.5,777h18.5v18.5v18.5h-18.5h-18.5v-18.5v-18.5h18.5M906.5,814h18.5v18.5v18.5h-18.5h-18.5v-18.5v-18.5h18.5M906.5,851h18.5v18.5v18.5h-18.5h-18.5v-18.5v-18.5h18.5M906.5,888h18.5v18.5v18.5h-18.5h-18.5v-18.5v-18.5h18.5M906.5,962h18.5v18.5v18.5h-18.5h-18.5v-18.5v-18.5h18.5M906.5,999h18.5v18.5v18.5h-18.5h-18.5v-18.5v-18.5h18.5M906.5,1036h18.5v18.5v18.5h-18.5q-18.5 0,-18.5 -18.5v-18.5h18.5M943.5,0h18.5v18.5v18.5h-18.5h-18.5v-18.5v-18.5h18.5M943.5,74h18.5v18.5v18.5h-18.5h-18.5v-18.5v-18.5h18.5M943.5,111h18.5v18.5v18.5h-18.5h-18.5v-18.5v-18.5h18.5M943.5,148h18.5v18.5v18.5h-18.5h-18.5v-18.5v-18.5h18.5M943.5,222h18.5v18.5v18.5h-18.5h-18.5v-18.5v-18.5h18.5M943.5,296q18.5 0,18.5 18.5q0 18.5,-18.5 18.5h-18.5v-18.5q0 -18.5,18.5 -18.5M943.5,407q18.5 0,18.5 18.5v18.5h-18.5h-18.5v-18.5q0 -18.5,18.5 -18.5M943.5,444h18.5v18.5v18.5h-18.5h-18.5v-18.5v-18.5h18.5M943.5,518h18.5v18.5v18.5h-18.5h-18.5v-18.5v-18.5h18.5M943.5,592h18.5v18.5v18.5h-18.5h-18.5v-18.5v-18.5h18.5M943.5,777h18.5v18.5v18.5h-18.5h-18.5v-18.5v-18.5h18.5M943.5,814h18.5v18.5v18.5h-18.5h-18.5v-18.5v-18.5h18.5M943.5,925h18.5v18.5v18.5h-18.5h-18.5v-18.5v-18.5h18.5M943.5,962h18.5v18.5v18.5h-18.5h-18.5v-18.5v-18.5h18.5M943.5,999h18.5v18.5v18.5h-18.5h-18.5v-18.5v-18.5h18.5M943.5,1036h18.5v18.5v18.5h-18.5h-18.5v-18.5v-18.5h18.5M980.5,0h18.5v18.5v18.5h-18.5h-18.5v-18.5v-18.5h18.5M980.5,74q18.5 0,18.5 18.5v18.5h-18.5h-18.5v-18.5v-18.5h18.5M980.5,111h18.5v18.5v18.5h-18.5h-18.5v-18.5v-18.5h18.5M980.5,148h18.5v18.5q0 18.5,-18.5 18.5h-18.5v-18.5v-18.5h18.5M980.5,222h18.5v18.5v18.5h-18.5h-18.5v-18.5v-18.5h18.5M980.5,444h18.5v18.5q0 18.5,-18.5 18.5h-18.5v-18.5v-18.5h18.5M980.5,518q18.5 0,18.5 18.5v18.5h-18.5h-18.5v-18.5v-18.5h18.5M980.5,592h18.5v18.5v18.5h-18.5h-18.5v-18.5v-18.5h18.5M980.5,629h18.5v18.5v18.5h-18.5h-18.5v-18.5v-18.5h18.5M980.5,666h18.5v18.5v18.5h-18.5q-18.5 0,-18.5 -18.5v-18.5h18.5M980.5,740h18.5v18.5v18.5h-18.5h-18.5v-18.5q0 -18.5,18.5 -18.5M980.5,777h18.5v18.5v18.5h-18.5h-18.5v-18.5v-18.5h18.5M980.5,814h18.5v18.5v18.5h-18.5h-18.5v-18.5v-18.5h18.5M980.5,888h18.5v18.5v18.5h-18.5h-18.5v-18.5q0 -18.5,18.5 -18.5M980.5,925h18.5v18.5v18.5h-18.5h-18.5v-18.5v-18.5h18.5M980.5,962h18.5v18.5v18.5h-18.5h-18.5v-18.5v-18.5h18.5M980.5,1036h18.5v18.5q0 18.5,-18.5 18.5h-18.5v-18.5v-18.5h18.5M1017.5,0h18.5v18.5v18.5h-18.5h-18.5v-18.5v-18.5h18.5M1017.5,222h18.5v18.5v18.5h-18.5h-18.5v-18.5v-18.5h18.5M1017.5,296q18.5 0,18.5 18.5v18.5h-18.5q-18.5 0,-18.5 -18.5q0 -18.5,18.5 -18.5M1017.5,407q18.5 0,18.5 18.5q0 18.5,-18.5 18.5h-18.5v-18.5q0 -18.5,18.5 -18.5M1017.5,555q18.5 0,18.5 18.5q0 18.5,-18.5 18.5h-18.5v-18.5v-18.5h18.5M1017.5,703q18.5 0,18.5 18.5v18.5h-18.5h-18.5v-18.5v-18.5h18.5M1017.5,740h18.5v18.5v18.5h-18.5h-18.5v-18.5v-18.5h18.5M1017.5,777h18.5v18.5v18.5h-18.5h-18.5v-18.5v-18.5h18.5M1017.5,851q18.5 0,18.5 18.5v18.5h-18.5h-18.5v-18.5v-18.5h18.5M1017.5,888h18.5v18.5v18.5h-18.5h-18.5v-18.5v-18.5h18.5M1017.5,962h18.5v18.5v18.5h-18.5h-18.5v-18.5v-18.5h18.5M1017.5,999h18.5v18.5q0 18.5,-18.5 18.5h-18.5v-18.5v-18.5h18.5M1054.5,0q18.5 0,18.5 18.5v18.5h-18.5h-18.5v-18.5v-18.5h18.5M1054.5,37h18.5v18.5v18.5h-18.5h-18.5v-18.5v-18.5h18.5M1054.5,74h18.5v18.5v18.5h-18.5h-18.5v-18.5v-18.5h18.5M1054.5,111h18.5v18.5v18.5h-18.5h-18.5v-18.5v-18.5h18.5M1054.5,148h18.5v18.5v18.5h-18.5h-18.5v-18.5v-18.5h18.5M1054.5,185h18.5v18.5v18.5h-18.5h-18.5v-18.5v-18.5h18.5M1054.5,222h18.5v18.5q0 18.5,-18.5 18.5h-18.5v-18.5v-18.5h18.5M1054.5,333q18.5 0,18.5 18.5q0 18.5,-18.5 18.5q-18.5 0,-18.5 -18.5v-18.5h18.5M1054.5,481q18.5 0,18.5 18.5q0 18.5,-18.5 18.5q-18.5 0,-18.5 -18.5q0 -18.5,18.5 -18.5M1054.5,629q18.5 0,18.5 18.5q0 18.5,-18.5 18.5q-18.5 0,-18.5 -18.5q0 -18.5,18.5 -18.5M1054.5,740q18.5 0,18.5 18.5v18.5h-18.5h-18.5v-18.5v-18.5h18.5M1054.5,777h18.5v18.5q0 18.5,-18.5 18.5h-18.5v-18.5v-18.5h18.5M1054.5,925q18.5 0,18.5 18.5q0 18.5,-18.5 18.5h-18.5v-18.5v-18.5h18.5"/>
	</g>
</svg>